# xmcd
#
# Track frame offsets:
#	150
#	20545
#	42032
#	60747
#	84935
#	106355
#	122565
#	141397
#	159367
#	177475
#
# Disc length: 2610 seconds
#
# Revision: 1
# Processed by: cddbd v1.5.1PL0 Copyright (c) Steve Scherf et al.
# Submitted via: CDex 1.50Beta5
#
DISCID=7d0a300a
DTITLE=Varios int将アrpretes - The best of Gifr for Lovers
DYEAR=1900
DGENRE=Blues
TTITLE0=Karyn white/Super woman
TTITLE1=Atlantic Starr/Always
TTITLE2=James ingran/I don't have the heart
TTITLE3=Maze featuring frankie beverly/Can't get over you
TTITLE4=Chaka Khan/Through the fire
TTITLE5=Patti austin/Baby come to me
TTITLE6=Roger/I want to be your man
TTITLE7=Club Nouveau/Lean on me
TTITLE8=Gwen guthrie/I'll give my best to you
TTITLE9=Randy crawford/Almaz
EXTD=
EXTT0=
EXTT1=
EXTT2=
EXTT3=
EXTT4=
EXTT5=
EXTT6=
EXTT7=
EXTT8=
EXTT9=
PLAYORDER=
